<svg aria-hidden="true" style="position: absolute; width: 0; height: 0; overflow: hidden;" version="1.1" xmlns="http://www.w3.org/2000/svg" xmlns:xlink="http://www.w3.org/1999/xlink">
<defs>
<symbol id="icon-twitter-icon" viewBox="0 0 38 32">
<path d="M33.777 7.62c0.024 0.334 0.024 0.669 0.024 1.003 0 10.2-7.763 21.953-21.953 21.953-4.371 0-8.432-1.266-11.848-3.464 0.621 0.072 1.218 0.095 1.863 0.095 3.607 0 6.927-1.218 9.579-3.297-3.392-0.072-6.235-2.293-7.214-5.351 0.478 0.072 0.956 0.119 1.457 0.119 0.693 0 1.386-0.096 2.030-0.263-3.535-0.717-6.187-3.822-6.187-7.572v-0.096c1.027 0.573 2.222 0.932 3.488 0.979-2.078-1.386-3.44-3.75-3.44-6.426 0-1.433 0.382-2.747 1.051-3.894 3.798 4.682 9.507 7.74 15.909 8.074-0.119-0.573-0.191-1.17-0.191-1.768 0-4.252 3.44-7.716 7.716-7.716 2.222 0 4.228 0.932 5.637 2.437 1.744-0.334 3.416-0.979 4.897-1.863-0.573 1.792-1.792 3.297-3.392 4.252 1.553-0.167 3.058-0.597 4.443-1.194-1.051 1.529-2.365 2.89-3.87 3.989z"></path>
</symbol>
<symbol id="icon-dribbble-icon" viewBox="0 0 32 32">
<path d="M15.5 0c-8.547 0-15.5 6.953-15.5 15.5s6.953 15.5 15.5 15.5c8.547 0 15.5-6.953 15.5-15.5s-6.953-15.5-15.5-15.5zM25.748 7.148c1.844 2.253 2.96 5.122 2.99 8.247-0.436-0.092-4.814-0.98-9.219-0.426-0.36-0.878-0.699-1.65-1.164-2.601 4.895-1.999 7.114-4.843 7.393-5.22zM24.276 5.617c-0.238 0.339-2.231 3.018-6.939 4.782-2.169-3.986-4.574-7.261-4.94-7.75 4.198-1.012 8.623 0.079 11.879 2.968zM9.871 3.539c0.349 0.479 2.715 3.757 4.909 7.657-6.193 1.645-11.648 1.621-12.24 1.613 0.859-4.108 3.627-7.523 7.331-9.27zM2.261 15.52c0-0.135 0.003-0.27 0.007-0.405 0.579 0.012 6.995 0.095 13.607-1.884 0.379 0.742 0.741 1.495 1.073 2.247-4.787 1.348-9.137 5.22-11.283 8.894-2.115-2.347-3.404-5.452-3.404-8.852zM7.374 25.965c1.383-2.827 5.136-6.476 10.474-8.297 1.859 4.83 2.628 8.878 2.824 10.040-4.257 1.813-9.376 1.316-13.298-1.743zM22.897 26.495c-0.136-0.805-0.84-4.681-2.572-9.44 4.149-0.664 7.794 0.423 8.247 0.566-0.59 3.684-2.705 6.865-5.675 8.874z"></path>
</symbol>
<symbol id="icon-github-icon" viewBox="0 0 32 32">
<path d="M10.703 25.123c0 0.129-0.148 0.232-0.335 0.232-0.213 0.019-0.361-0.084-0.361-0.232 0-0.129 0.148-0.232 0.335-0.232 0.194-0.019 0.361 0.084 0.361 0.232zM8.697 24.832c-0.045 0.129 0.084 0.277 0.277 0.316 0.168 0.065 0.361 0 0.4-0.129s-0.084-0.277-0.277-0.336c-0.168-0.045-0.355 0.019-0.4 0.148zM11.548 24.723c-0.187 0.045-0.316 0.168-0.297 0.316 0.019 0.129 0.187 0.213 0.381 0.168 0.187-0.045 0.316-0.168 0.297-0.297-0.019-0.123-0.194-0.206-0.381-0.187zM15.794 0c-8.948 0-15.794 6.794-15.794 15.742 0 7.155 4.503 13.277 10.935 15.432 0.826 0.148 1.116-0.361 1.116-0.781 0-0.4-0.019-2.607-0.019-3.961 0 0-4.516 0.968-5.465-1.923 0 0-0.736-1.877-1.794-2.361 0 0-1.477-1.013 0.103-0.993 0 0 1.606 0.129 2.49 1.664 1.413 2.49 3.781 1.774 4.703 1.348 0.148-1.032 0.568-1.748 1.032-2.174-3.606-0.4-7.245-0.923-7.245-7.129 0-1.774 0.49-2.665 1.523-3.8-0.168-0.419-0.716-2.148 0.168-4.381 1.348-0.419 4.452 1.742 4.452 1.742 1.29-0.361 2.677-0.548 4.052-0.548s2.761 0.187 4.052 0.548c0 0 3.103-2.168 4.452-1.742 0.884 2.239 0.336 3.961 0.168 4.381 1.032 1.142 1.664 2.032 1.664 3.8 0 6.226-3.8 6.723-7.406 7.129 0.594 0.51 1.097 1.477 1.097 2.993 0 2.174-0.019 4.865-0.019 5.394 0 0.419 0.297 0.929 1.116 0.781 6.452-2.142 10.826-8.264 10.826-15.419 0-8.948-7.258-15.742-16.206-15.742zM6.271 22.252c-0.084 0.064-0.064 0.213 0.045 0.335 0.103 0.103 0.252 0.148 0.335 0.065 0.084-0.065 0.064-0.213-0.045-0.336-0.103-0.103-0.252-0.148-0.335-0.064zM5.574 21.729c-0.045 0.084 0.019 0.187 0.148 0.252 0.103 0.064 0.232 0.045 0.277-0.045 0.045-0.084-0.019-0.187-0.148-0.252-0.129-0.039-0.232-0.019-0.277 0.045zM7.665 24.026c-0.103 0.084-0.064 0.277 0.084 0.4 0.148 0.148 0.336 0.168 0.419 0.065 0.084-0.084 0.045-0.277-0.084-0.4-0.142-0.148-0.335-0.168-0.419-0.065zM6.929 23.077c-0.103 0.064-0.103 0.232 0 0.381s0.277 0.213 0.361 0.148c0.103-0.084 0.103-0.252 0-0.4-0.090-0.148-0.258-0.213-0.361-0.129z"></path>
</symbol>
<symbol id="icon-facebook-icon" viewBox="0 0 17 32">
<path d="M15.738 17.688l0.873-5.691h-5.461v-3.693c0-1.557 0.763-3.075 3.209-3.075h2.483v-4.845c0 0-2.253-0.384-4.407-0.384-4.497 0-7.436 2.726-7.436 7.66v4.337h-4.999v5.691h4.999v13.758h6.152v-13.758h4.587z"></path>
</symbol>
<symbol id="icon-vector-12" viewBox="0 0 33 32">
<path fill="#3db370" style="fill: var(--color1, #3db370)" d="M31.064 8.787c0-4.294-3.484-7.787-7.766-7.787-3.222 0-6.087 2.020-7.234 4.953-1.147-2.933-4.012-4.953-7.234-4.953-4.282 0-7.766 3.493-7.766 7.787 0 3.226 1.942 6.042 4.847 7.213-2.905 1.171-4.847 3.987-4.847 7.213 0 4.294 3.484 7.787 7.766 7.787 3.222 0 6.087-2.020 7.234-4.953 1.147 2.933 4.012 4.953 7.234 4.953 4.282 0 7.766-3.493 7.766-7.787 0-3.226-1.942-6.042-4.847-7.213 2.905-1.171 4.847-3.987 4.847-7.213zM24.89 15.635c-0.169 0.039-0.289 0.191-0.289 0.365s0.12 0.326 0.289 0.365c3.194 0.744 5.425 3.56 5.425 6.848 0 3.88-3.148 7.037-7.018 7.037-3.303 0-6.191-2.35-6.868-5.587-0.036-0.174-0.189-0.298-0.366-0.298s-0.33 0.125-0.366 0.298c-0.677 3.237-3.565 5.587-6.868 5.587-3.87 0-7.018-3.157-7.018-7.037 0-3.288 2.231-6.103 5.425-6.848 0.169-0.039 0.289-0.191 0.289-0.365s-0.12-0.326-0.289-0.365c-3.194-0.745-5.425-3.56-5.425-6.848 0-3.88 3.148-7.037 7.018-7.037 3.303 0 6.191 2.35 6.868 5.587 0.036 0.174 0.189 0.298 0.366 0.298s0.33-0.125 0.366-0.298c0.676-3.237 3.565-5.587 6.868-5.587 3.87 0 7.018 3.157 7.018 7.037 0 3.287-2.231 6.103-5.425 6.848z"></path>
<path fill="none" stroke="#3db370" style="stroke: var(--color1, #3db370)" stroke-linejoin="miter" stroke-linecap="butt" stroke-miterlimit="4" stroke-width="2" d="M31.064 8.787c0-4.294-3.484-7.787-7.766-7.787-3.222 0-6.087 2.020-7.234 4.953-1.147-2.933-4.012-4.953-7.234-4.953-4.282 0-7.766 3.493-7.766 7.787 0 3.226 1.942 6.042 4.847 7.213-2.905 1.171-4.847 3.987-4.847 7.213 0 4.294 3.484 7.787 7.766 7.787 3.222 0 6.087-2.020 7.234-4.953 1.147 2.933 4.012 4.953 7.234 4.953 4.282 0 7.766-3.493 7.766-7.787 0-3.226-1.942-6.042-4.847-7.213 2.905-1.171 4.847-3.987 4.847-7.213zM24.89 15.635c-0.169 0.039-0.289 0.191-0.289 0.365s0.12 0.326 0.289 0.365c3.194 0.744 5.425 3.56 5.425 6.848 0 3.88-3.148 7.037-7.018 7.037-3.303 0-6.191-2.35-6.868-5.587-0.036-0.174-0.189-0.298-0.366-0.298s-0.33 0.125-0.366 0.298c-0.677 3.237-3.565 5.587-6.868 5.587-3.87 0-7.018-3.157-7.018-7.037 0-3.288 2.231-6.103 5.425-6.848 0.169-0.039 0.289-0.191 0.289-0.365s-0.12-0.326-0.289-0.365c-3.194-0.745-5.425-3.56-5.425-6.848 0-3.88 3.148-7.037 7.018-7.037 3.303 0 6.191 2.35 6.868 5.587 0.036 0.174 0.189 0.298 0.366 0.298s0.33-0.125 0.366-0.298c0.676-3.237 3.565-5.587 6.868-5.587 3.87 0 7.018 3.157 7.018 7.037 0 3.287-2.231 6.103-5.425 6.848z"></path>
</symbol>
    <symbol id="icon-instagram-icon" viewBox="0 0 32 32">
        <path d="M15.25 7.427c-4.327 0-7.816 3.49-7.816 7.816s3.49 7.816 7.816 7.816 7.816-3.49 7.816-7.816c0-4.326-3.49-7.816-7.816-7.816zM15.25 20.325c-2.796 0-5.082-2.279-5.082-5.082s2.279-5.082 5.082-5.082 5.082 2.279 5.082 5.082c0 2.803-2.286 5.082-5.082 5.082zM25.209 7.107c0 1.014-0.816 1.823-1.823 1.823-1.014 0-1.823-0.816-1.823-1.823s0.816-1.823 1.823-1.823c1.007 0 1.823 0.816 1.823 1.823zM30.386 8.957c-0.116-2.442-0.673-4.605-2.463-6.388-1.782-1.782-3.945-2.34-6.388-2.463-2.517-0.143-10.061-0.143-12.578 0-2.435 0.116-4.599 0.673-6.388 2.456s-2.34 3.946-2.463 6.388c-0.143 2.517-0.143 10.061 0 12.578 0.116 2.442 0.673 4.606 2.463 6.388s3.946 2.34 6.388 2.463c2.517 0.143 10.061 0.143 12.578 0 2.442-0.116 4.605-0.674 6.388-2.463 1.782-1.782 2.34-3.946 2.463-6.388 0.143-2.517 0.143-10.054 0-12.571zM27.134 24.23c-0.531 1.333-1.558 2.361-2.898 2.898-2.007 0.796-6.769 0.612-8.986 0.612s-6.986 0.177-8.986-0.612c-1.333-0.531-2.361-1.558-2.898-2.898-0.796-2.007-0.612-6.769-0.612-8.986s-0.177-6.986 0.612-8.986c0.531-1.333 1.558-2.361 2.898-2.898 2.007-0.796 6.769-0.612 8.986-0.612s6.986-0.177 8.986 0.612c1.333 0.531 2.361 1.558 2.898 2.898 0.796 2.007 0.612 6.769 0.612 8.986s0.184 6.986-0.612 8.986z"></path>
    </symbol>
</defs>
</svg>
